<mxfile host="app.diagrams.net" modified="2020-07-12T12:17:56.870Z" agent="5.0 (Macintosh; Intel Mac OS X 10_15_5) AppleWebKit/537.36 (KHTML, like Gecko) Chrome/83.0.4103.116 Safari/537.36" etag="r_D7knOgxmQeXIpdmCM0" version="13.4.2" type="github">
  <diagram id="Kjc9poSDJmzgFYwM65Es" name="Page-1">
    <mxGraphModel dx="2066" dy="1105" grid="1" gridSize="10" guides="1" tooltips="1" connect="1" arrows="1" fold="1" page="1" pageScale="1" pageWidth="827" pageHeight="1169" math="0" shadow="0">
      <root>
        <mxCell id="0" />
        <mxCell id="1" parent="0" />
        <mxCell id="3AUyrIFCvZihrLzA8j-U-2" value="" style="strokeWidth=2;html=1;shape=mxgraph.flowchart.database;whiteSpace=wrap;fillColor=#f0a30a;strokeColor=#BD7000;fontColor=#ffffff;" vertex="1" parent="1">
          <mxGeometry x="220" y="30" width="170" height="180" as="geometry" />
        </mxCell>
        <mxCell id="3AUyrIFCvZihrLzA8j-U-4" value="3" style="rounded=0;whiteSpace=wrap;html=1;strokeColor=#6c8ebf;fillColor=#dae8fc;" vertex="1" parent="1">
          <mxGeometry x="340" y="100" width="30" height="20" as="geometry" />
        </mxCell>
        <mxCell id="3AUyrIFCvZihrLzA8j-U-5" value="2" style="rounded=0;whiteSpace=wrap;html=1;strokeColor=#6c8ebf;fillColor=#dae8fc;" vertex="1" parent="1">
          <mxGeometry x="290" y="100" width="30" height="20" as="geometry" />
        </mxCell>
        <mxCell id="3AUyrIFCvZihrLzA8j-U-6" value="1" style="rounded=0;whiteSpace=wrap;html=1;strokeColor=#6c8ebf;fillColor=#dae8fc;" vertex="1" parent="1">
          <mxGeometry x="240" y="100" width="30" height="20" as="geometry" />
        </mxCell>
        <mxCell id="3AUyrIFCvZihrLzA8j-U-7" value="6" style="rounded=0;whiteSpace=wrap;html=1;strokeColor=#6c8ebf;fillColor=#dae8fc;" vertex="1" parent="1">
          <mxGeometry x="340" y="150" width="30" height="20" as="geometry" />
        </mxCell>
        <mxCell id="3AUyrIFCvZihrLzA8j-U-8" value="5" style="rounded=0;whiteSpace=wrap;html=1;strokeColor=#6c8ebf;fillColor=#dae8fc;" vertex="1" parent="1">
          <mxGeometry x="290" y="150" width="30" height="20" as="geometry" />
        </mxCell>
        <mxCell id="3AUyrIFCvZihrLzA8j-U-9" value="4" style="rounded=0;whiteSpace=wrap;html=1;strokeColor=#6c8ebf;fillColor=#dae8fc;" vertex="1" parent="1">
          <mxGeometry x="240" y="150" width="30" height="20" as="geometry" />
        </mxCell>
        <mxCell id="3AUyrIFCvZihrLzA8j-U-10" value="&lt;font style=&quot;font-size: 16px&quot;&gt;Swap Space (in disk)&lt;/font&gt;" style="text;html=1;align=center;verticalAlign=middle;resizable=0;points=[];autosize=1;" vertex="1" parent="1">
          <mxGeometry x="390" y="50" width="170" height="20" as="geometry" />
        </mxCell>
        <mxCell id="gSJrjUqgG9J_eSjiBrPd-1" value="" style="shape=table;html=1;whiteSpace=wrap;startSize=0;container=1;collapsible=0;childLayout=tableLayout;" parent="1" vertex="1">
          <mxGeometry x="30" y="50" width="60" height="560" as="geometry" />
        </mxCell>
        <mxCell id="gSJrjUqgG9J_eSjiBrPd-2" value="" style="shape=partialRectangle;html=1;whiteSpace=wrap;collapsible=0;dropTarget=0;pointerEvents=0;fillColor=none;top=0;left=0;bottom=0;right=0;points=[[0,0.5],[1,0.5]];portConstraint=eastwest;" parent="gSJrjUqgG9J_eSjiBrPd-1" vertex="1">
          <mxGeometry width="60" height="40" as="geometry" />
        </mxCell>
        <mxCell id="gSJrjUqgG9J_eSjiBrPd-3" value="6" style="shape=partialRectangle;html=1;whiteSpace=wrap;connectable=0;overflow=hidden;fillColor=#dae8fc;top=0;left=0;bottom=0;right=0;strokeColor=#6c8ebf;" parent="gSJrjUqgG9J_eSjiBrPd-2" vertex="1">
          <mxGeometry width="60" height="40" as="geometry" />
        </mxCell>
        <mxCell id="gSJrjUqgG9J_eSjiBrPd-4" value="" style="shape=partialRectangle;html=1;whiteSpace=wrap;collapsible=0;dropTarget=0;pointerEvents=0;fillColor=none;top=0;left=0;bottom=0;right=0;points=[[0,0.5],[1,0.5]];portConstraint=eastwest;" parent="gSJrjUqgG9J_eSjiBrPd-1" vertex="1">
          <mxGeometry y="40" width="60" height="40" as="geometry" />
        </mxCell>
        <mxCell id="gSJrjUqgG9J_eSjiBrPd-5" value="2" style="shape=partialRectangle;html=1;whiteSpace=wrap;connectable=0;overflow=hidden;top=0;left=0;bottom=0;right=0;fillColor=#fff2cc;strokeColor=#d6b656;" parent="gSJrjUqgG9J_eSjiBrPd-4" vertex="1">
          <mxGeometry width="60" height="40" as="geometry" />
        </mxCell>
        <mxCell id="gSJrjUqgG9J_eSjiBrPd-6" value="" style="shape=partialRectangle;html=1;whiteSpace=wrap;collapsible=0;dropTarget=0;pointerEvents=0;fillColor=none;top=0;left=0;bottom=0;right=0;points=[[0,0.5],[1,0.5]];portConstraint=eastwest;" parent="gSJrjUqgG9J_eSjiBrPd-1" vertex="1">
          <mxGeometry y="80" width="60" height="40" as="geometry" />
        </mxCell>
        <mxCell id="gSJrjUqgG9J_eSjiBrPd-7" value="" style="shape=partialRectangle;html=1;whiteSpace=wrap;connectable=0;overflow=hidden;top=0;left=0;bottom=0;right=0;" parent="gSJrjUqgG9J_eSjiBrPd-6" vertex="1">
          <mxGeometry width="60" height="40" as="geometry" />
        </mxCell>
        <mxCell id="gSJrjUqgG9J_eSjiBrPd-8" value="" style="shape=partialRectangle;html=1;whiteSpace=wrap;collapsible=0;dropTarget=0;pointerEvents=0;fillColor=none;top=0;left=0;bottom=0;right=0;points=[[0,0.5],[1,0.5]];portConstraint=eastwest;" parent="gSJrjUqgG9J_eSjiBrPd-1" vertex="1">
          <mxGeometry y="120" width="60" height="40" as="geometry" />
        </mxCell>
        <mxCell id="gSJrjUqgG9J_eSjiBrPd-9" value="3" style="shape=partialRectangle;html=1;whiteSpace=wrap;connectable=0;overflow=hidden;top=0;left=0;bottom=0;right=0;fillColor=#e1d5e7;strokeColor=#9673a6;" parent="gSJrjUqgG9J_eSjiBrPd-8" vertex="1">
          <mxGeometry width="60" height="40" as="geometry" />
        </mxCell>
        <mxCell id="gSJrjUqgG9J_eSjiBrPd-10" value="" style="shape=partialRectangle;html=1;whiteSpace=wrap;collapsible=0;dropTarget=0;pointerEvents=0;fillColor=none;top=0;left=0;bottom=0;right=0;points=[[0,0.5],[1,0.5]];portConstraint=eastwest;" parent="gSJrjUqgG9J_eSjiBrPd-1" vertex="1">
          <mxGeometry y="160" width="60" height="40" as="geometry" />
        </mxCell>
        <mxCell id="gSJrjUqgG9J_eSjiBrPd-11" value="1" style="shape=partialRectangle;html=1;whiteSpace=wrap;connectable=0;overflow=hidden;top=0;left=0;bottom=0;right=0;fillColor=#fff2cc;strokeColor=#d6b656;" parent="gSJrjUqgG9J_eSjiBrPd-10" vertex="1">
          <mxGeometry width="60" height="40" as="geometry" />
        </mxCell>
        <mxCell id="gSJrjUqgG9J_eSjiBrPd-12" value="" style="shape=partialRectangle;html=1;whiteSpace=wrap;collapsible=0;dropTarget=0;pointerEvents=0;fillColor=none;top=0;left=0;bottom=0;right=0;points=[[0,0.5],[1,0.5]];portConstraint=eastwest;" parent="gSJrjUqgG9J_eSjiBrPd-1" vertex="1">
          <mxGeometry y="200" width="60" height="40" as="geometry" />
        </mxCell>
        <mxCell id="gSJrjUqgG9J_eSjiBrPd-13" value="2" style="shape=partialRectangle;html=1;whiteSpace=wrap;connectable=0;overflow=hidden;top=0;left=0;bottom=0;right=0;fillColor=#e1d5e7;strokeColor=#9673a6;" parent="gSJrjUqgG9J_eSjiBrPd-12" vertex="1">
          <mxGeometry width="60" height="40" as="geometry" />
        </mxCell>
        <mxCell id="gSJrjUqgG9J_eSjiBrPd-14" value="" style="shape=partialRectangle;html=1;whiteSpace=wrap;collapsible=0;dropTarget=0;pointerEvents=0;fillColor=none;top=0;left=0;bottom=0;right=0;points=[[0,0.5],[1,0.5]];portConstraint=eastwest;" parent="gSJrjUqgG9J_eSjiBrPd-1" vertex="1">
          <mxGeometry y="240" width="60" height="40" as="geometry" />
        </mxCell>
        <mxCell id="gSJrjUqgG9J_eSjiBrPd-15" value="" style="shape=partialRectangle;html=1;whiteSpace=wrap;connectable=0;overflow=hidden;top=0;left=0;bottom=0;right=0;" parent="gSJrjUqgG9J_eSjiBrPd-14" vertex="1">
          <mxGeometry width="60" height="40" as="geometry" />
        </mxCell>
        <mxCell id="gSJrjUqgG9J_eSjiBrPd-16" value="" style="shape=partialRectangle;html=1;whiteSpace=wrap;collapsible=0;dropTarget=0;pointerEvents=0;fillColor=none;top=0;left=0;bottom=0;right=0;points=[[0,0.5],[1,0.5]];portConstraint=eastwest;" parent="gSJrjUqgG9J_eSjiBrPd-1" vertex="1">
          <mxGeometry y="280" width="60" height="40" as="geometry" />
        </mxCell>
        <mxCell id="gSJrjUqgG9J_eSjiBrPd-17" value="5" style="shape=partialRectangle;html=1;whiteSpace=wrap;connectable=0;overflow=hidden;fillColor=#dae8fc;top=0;left=0;bottom=0;right=0;strokeColor=#6c8ebf;" parent="gSJrjUqgG9J_eSjiBrPd-16" vertex="1">
          <mxGeometry width="60" height="40" as="geometry" />
        </mxCell>
        <mxCell id="gSJrjUqgG9J_eSjiBrPd-18" value="" style="shape=partialRectangle;html=1;whiteSpace=wrap;collapsible=0;dropTarget=0;pointerEvents=0;fillColor=none;top=0;left=0;bottom=0;right=0;points=[[0,0.5],[1,0.5]];portConstraint=eastwest;" parent="gSJrjUqgG9J_eSjiBrPd-1" vertex="1">
          <mxGeometry y="320" width="60" height="40" as="geometry" />
        </mxCell>
        <mxCell id="gSJrjUqgG9J_eSjiBrPd-19" value="" style="shape=partialRectangle;html=1;whiteSpace=wrap;connectable=0;overflow=hidden;fillColor=none;top=0;left=0;bottom=0;right=0;" parent="gSJrjUqgG9J_eSjiBrPd-18" vertex="1">
          <mxGeometry width="60" height="40" as="geometry" />
        </mxCell>
        <mxCell id="gSJrjUqgG9J_eSjiBrPd-20" value="" style="shape=partialRectangle;html=1;whiteSpace=wrap;collapsible=0;dropTarget=0;pointerEvents=0;fillColor=none;top=0;left=0;bottom=0;right=0;points=[[0,0.5],[1,0.5]];portConstraint=eastwest;" parent="gSJrjUqgG9J_eSjiBrPd-1" vertex="1">
          <mxGeometry y="360" width="60" height="40" as="geometry" />
        </mxCell>
        <mxCell id="gSJrjUqgG9J_eSjiBrPd-21" value="" style="shape=partialRectangle;html=1;whiteSpace=wrap;connectable=0;overflow=hidden;fillColor=none;top=0;left=0;bottom=0;right=0;" parent="gSJrjUqgG9J_eSjiBrPd-20" vertex="1">
          <mxGeometry width="60" height="40" as="geometry" />
        </mxCell>
        <mxCell id="gSJrjUqgG9J_eSjiBrPd-22" value="" style="shape=partialRectangle;html=1;whiteSpace=wrap;collapsible=0;dropTarget=0;pointerEvents=0;fillColor=none;top=0;left=0;bottom=0;right=0;points=[[0,0.5],[1,0.5]];portConstraint=eastwest;" parent="gSJrjUqgG9J_eSjiBrPd-1" vertex="1">
          <mxGeometry y="400" width="60" height="40" as="geometry" />
        </mxCell>
        <mxCell id="gSJrjUqgG9J_eSjiBrPd-23" value="1" style="shape=partialRectangle;html=1;whiteSpace=wrap;connectable=0;overflow=hidden;fillColor=#dae8fc;top=0;left=0;bottom=0;right=0;strokeColor=#6c8ebf;" parent="gSJrjUqgG9J_eSjiBrPd-22" vertex="1">
          <mxGeometry width="60" height="40" as="geometry" />
        </mxCell>
        <mxCell id="gSJrjUqgG9J_eSjiBrPd-24" value="" style="shape=partialRectangle;html=1;whiteSpace=wrap;collapsible=0;dropTarget=0;pointerEvents=0;fillColor=none;top=0;left=0;bottom=0;right=0;points=[[0,0.5],[1,0.5]];portConstraint=eastwest;" parent="gSJrjUqgG9J_eSjiBrPd-1" vertex="1">
          <mxGeometry y="440" width="60" height="40" as="geometry" />
        </mxCell>
        <mxCell id="gSJrjUqgG9J_eSjiBrPd-25" value="1" style="shape=partialRectangle;html=1;whiteSpace=wrap;connectable=0;overflow=hidden;fillColor=#e1d5e7;top=0;left=0;bottom=0;right=0;strokeColor=#9673a6;" parent="gSJrjUqgG9J_eSjiBrPd-24" vertex="1">
          <mxGeometry width="60" height="40" as="geometry" />
        </mxCell>
        <mxCell id="gSJrjUqgG9J_eSjiBrPd-26" value="" style="shape=partialRectangle;html=1;whiteSpace=wrap;collapsible=0;dropTarget=0;pointerEvents=0;fillColor=none;top=0;left=0;bottom=0;right=0;points=[[0,0.5],[1,0.5]];portConstraint=eastwest;" parent="gSJrjUqgG9J_eSjiBrPd-1" vertex="1">
          <mxGeometry y="480" width="60" height="40" as="geometry" />
        </mxCell>
        <mxCell id="gSJrjUqgG9J_eSjiBrPd-27" value="" style="shape=partialRectangle;html=1;whiteSpace=wrap;connectable=0;overflow=hidden;fillColor=none;top=0;left=0;bottom=0;right=0;" parent="gSJrjUqgG9J_eSjiBrPd-26" vertex="1">
          <mxGeometry width="60" height="40" as="geometry" />
        </mxCell>
        <mxCell id="gSJrjUqgG9J_eSjiBrPd-28" value="" style="shape=partialRectangle;html=1;whiteSpace=wrap;collapsible=0;dropTarget=0;pointerEvents=0;fillColor=none;top=0;left=0;bottom=0;right=0;points=[[0,0.5],[1,0.5]];portConstraint=eastwest;" parent="gSJrjUqgG9J_eSjiBrPd-1" vertex="1">
          <mxGeometry y="520" width="60" height="40" as="geometry" />
        </mxCell>
        <mxCell id="gSJrjUqgG9J_eSjiBrPd-29" value="" style="shape=partialRectangle;html=1;whiteSpace=wrap;connectable=0;overflow=hidden;top=0;left=0;bottom=0;right=0;" parent="gSJrjUqgG9J_eSjiBrPd-28" vertex="1">
          <mxGeometry width="60" height="40" as="geometry" />
        </mxCell>
        <mxCell id="gSJrjUqgG9J_eSjiBrPd-30" value="" style="shape=table;html=1;whiteSpace=wrap;startSize=0;container=1;collapsible=0;childLayout=tableLayout;fillColor=#f8cecc;strokeColor=#b85450;" parent="1" vertex="1">
          <mxGeometry x="590" y="30" width="60" height="240" as="geometry" />
        </mxCell>
        <mxCell id="gSJrjUqgG9J_eSjiBrPd-31" value="" style="shape=partialRectangle;html=1;whiteSpace=wrap;collapsible=0;dropTarget=0;pointerEvents=0;fillColor=none;top=0;left=0;bottom=0;right=0;points=[[0,0.5],[1,0.5]];portConstraint=eastwest;" parent="gSJrjUqgG9J_eSjiBrPd-30" vertex="1">
          <mxGeometry width="60" height="40" as="geometry" />
        </mxCell>
        <mxCell id="gSJrjUqgG9J_eSjiBrPd-32" value="1" style="shape=partialRectangle;html=1;whiteSpace=wrap;connectable=0;overflow=hidden;fillColor=#f8cecc;top=0;left=0;bottom=0;right=0;strokeColor=#b85450;" parent="gSJrjUqgG9J_eSjiBrPd-31" vertex="1">
          <mxGeometry width="60" height="40" as="geometry" />
        </mxCell>
        <mxCell id="gSJrjUqgG9J_eSjiBrPd-33" value="" style="shape=partialRectangle;html=1;whiteSpace=wrap;collapsible=0;dropTarget=0;pointerEvents=0;fillColor=none;top=0;left=0;bottom=0;right=0;points=[[0,0.5],[1,0.5]];portConstraint=eastwest;" parent="gSJrjUqgG9J_eSjiBrPd-30" vertex="1">
          <mxGeometry y="40" width="60" height="40" as="geometry" />
        </mxCell>
        <mxCell id="gSJrjUqgG9J_eSjiBrPd-34" value="2" style="shape=partialRectangle;html=1;whiteSpace=wrap;connectable=0;overflow=hidden;fillColor=none;top=0;left=0;bottom=0;right=0;" parent="gSJrjUqgG9J_eSjiBrPd-33" vertex="1">
          <mxGeometry width="60" height="40" as="geometry" />
        </mxCell>
        <mxCell id="gSJrjUqgG9J_eSjiBrPd-35" value="" style="shape=partialRectangle;html=1;whiteSpace=wrap;collapsible=0;dropTarget=0;pointerEvents=0;fillColor=none;top=0;left=0;bottom=0;right=0;points=[[0,0.5],[1,0.5]];portConstraint=eastwest;" parent="gSJrjUqgG9J_eSjiBrPd-30" vertex="1">
          <mxGeometry y="80" width="60" height="40" as="geometry" />
        </mxCell>
        <mxCell id="gSJrjUqgG9J_eSjiBrPd-36" value="3" style="shape=partialRectangle;html=1;whiteSpace=wrap;connectable=0;overflow=hidden;fillColor=none;top=0;left=0;bottom=0;right=0;" parent="gSJrjUqgG9J_eSjiBrPd-35" vertex="1">
          <mxGeometry width="60" height="40" as="geometry" />
        </mxCell>
        <mxCell id="gSJrjUqgG9J_eSjiBrPd-37" value="" style="shape=partialRectangle;html=1;whiteSpace=wrap;collapsible=0;dropTarget=0;pointerEvents=0;fillColor=none;top=0;left=0;bottom=0;right=0;points=[[0,0.5],[1,0.5]];portConstraint=eastwest;" parent="gSJrjUqgG9J_eSjiBrPd-30" vertex="1">
          <mxGeometry y="120" width="60" height="40" as="geometry" />
        </mxCell>
        <mxCell id="gSJrjUqgG9J_eSjiBrPd-38" value="4" style="shape=partialRectangle;html=1;whiteSpace=wrap;connectable=0;overflow=hidden;fillColor=none;top=0;left=0;bottom=0;right=0;" parent="gSJrjUqgG9J_eSjiBrPd-37" vertex="1">
          <mxGeometry width="60" height="40" as="geometry" />
        </mxCell>
        <mxCell id="gSJrjUqgG9J_eSjiBrPd-39" value="" style="shape=partialRectangle;html=1;whiteSpace=wrap;collapsible=0;dropTarget=0;pointerEvents=0;fillColor=none;top=0;left=0;bottom=0;right=0;points=[[0,0.5],[1,0.5]];portConstraint=eastwest;" parent="gSJrjUqgG9J_eSjiBrPd-30" vertex="1">
          <mxGeometry y="160" width="60" height="40" as="geometry" />
        </mxCell>
        <mxCell id="gSJrjUqgG9J_eSjiBrPd-40" value="5" style="shape=partialRectangle;html=1;whiteSpace=wrap;connectable=0;overflow=hidden;fillColor=none;top=0;left=0;bottom=0;right=0;" parent="gSJrjUqgG9J_eSjiBrPd-39" vertex="1">
          <mxGeometry width="60" height="40" as="geometry" />
        </mxCell>
        <mxCell id="gSJrjUqgG9J_eSjiBrPd-41" value="" style="shape=partialRectangle;html=1;whiteSpace=wrap;collapsible=0;dropTarget=0;pointerEvents=0;fillColor=none;top=0;left=0;bottom=0;right=0;points=[[0,0.5],[1,0.5]];portConstraint=eastwest;" parent="gSJrjUqgG9J_eSjiBrPd-30" vertex="1">
          <mxGeometry y="200" width="60" height="40" as="geometry" />
        </mxCell>
        <mxCell id="gSJrjUqgG9J_eSjiBrPd-42" value="6" style="shape=partialRectangle;html=1;whiteSpace=wrap;connectable=0;overflow=hidden;fillColor=none;top=0;left=0;bottom=0;right=0;" parent="gSJrjUqgG9J_eSjiBrPd-41" vertex="1">
          <mxGeometry width="60" height="40" as="geometry" />
        </mxCell>
        <mxCell id="gSJrjUqgG9J_eSjiBrPd-44" value="" style="shape=table;html=1;whiteSpace=wrap;startSize=0;container=1;collapsible=0;childLayout=tableLayout;" parent="1" vertex="1">
          <mxGeometry x="230" y="330" width="340" height="280" as="geometry" />
        </mxCell>
        <mxCell id="gSJrjUqgG9J_eSjiBrPd-45" value="" style="shape=partialRectangle;html=1;whiteSpace=wrap;collapsible=0;dropTarget=0;pointerEvents=0;fillColor=none;top=0;left=0;bottom=0;right=0;points=[[0,0.5],[1,0.5]];portConstraint=eastwest;" parent="gSJrjUqgG9J_eSjiBrPd-44" vertex="1">
          <mxGeometry width="340" height="40" as="geometry" />
        </mxCell>
        <mxCell id="gSJrjUqgG9J_eSjiBrPd-46" value="block" style="shape=partialRectangle;html=1;whiteSpace=wrap;connectable=0;overflow=hidden;fillColor=#d5e8d4;top=0;left=0;bottom=0;right=0;strokeColor=#82b366;" parent="gSJrjUqgG9J_eSjiBrPd-45" vertex="1">
          <mxGeometry width="60" height="40" as="geometry" />
        </mxCell>
        <mxCell id="gSJrjUqgG9J_eSjiBrPd-47" value="page frame" style="shape=partialRectangle;html=1;whiteSpace=wrap;connectable=0;overflow=hidden;fillColor=#d5e8d4;top=0;left=0;bottom=0;right=0;strokeColor=#82b366;" parent="gSJrjUqgG9J_eSjiBrPd-45" vertex="1">
          <mxGeometry x="60" width="70" height="40" as="geometry" />
        </mxCell>
        <mxCell id="3AUyrIFCvZihrLzA8j-U-34" value="Present Bit" style="shape=partialRectangle;html=1;whiteSpace=wrap;connectable=0;overflow=hidden;fillColor=#d5e8d4;top=0;left=0;bottom=0;right=0;strokeColor=#82b366;" vertex="1" parent="gSJrjUqgG9J_eSjiBrPd-45">
          <mxGeometry x="130" width="70" height="40" as="geometry" />
        </mxCell>
        <mxCell id="3AUyrIFCvZihrLzA8j-U-41" value="Dirty Bit" style="shape=partialRectangle;html=1;whiteSpace=wrap;connectable=0;overflow=hidden;fillColor=#d5e8d4;top=0;left=0;bottom=0;right=0;strokeColor=#82b366;" vertex="1" parent="gSJrjUqgG9J_eSjiBrPd-45">
          <mxGeometry x="200" width="70" height="40" as="geometry" />
        </mxCell>
        <mxCell id="3AUyrIFCvZihrLzA8j-U-48" value="protection Bit" style="shape=partialRectangle;html=1;whiteSpace=wrap;connectable=0;overflow=hidden;fillColor=#d5e8d4;top=0;left=0;bottom=0;right=0;strokeColor=#82b366;" vertex="1" parent="gSJrjUqgG9J_eSjiBrPd-45">
          <mxGeometry x="270" width="70" height="40" as="geometry" />
        </mxCell>
        <mxCell id="gSJrjUqgG9J_eSjiBrPd-51" value="" style="shape=partialRectangle;html=1;whiteSpace=wrap;collapsible=0;dropTarget=0;pointerEvents=0;fillColor=none;top=0;left=0;bottom=0;right=0;points=[[0,0.5],[1,0.5]];portConstraint=eastwest;" parent="gSJrjUqgG9J_eSjiBrPd-44" vertex="1">
          <mxGeometry y="40" width="340" height="40" as="geometry" />
        </mxCell>
        <mxCell id="gSJrjUqgG9J_eSjiBrPd-52" value="1" style="shape=partialRectangle;html=1;whiteSpace=wrap;connectable=0;overflow=hidden;fillColor=#dae8fc;top=0;left=0;bottom=0;right=0;strokeColor=#6c8ebf;" parent="gSJrjUqgG9J_eSjiBrPd-51" vertex="1">
          <mxGeometry width="60" height="40" as="geometry" />
        </mxCell>
        <mxCell id="gSJrjUqgG9J_eSjiBrPd-53" value="11" style="shape=partialRectangle;html=1;whiteSpace=wrap;connectable=0;overflow=hidden;fillColor=#dae8fc;top=0;left=0;bottom=0;right=0;strokeColor=#6c8ebf;" parent="gSJrjUqgG9J_eSjiBrPd-51" vertex="1">
          <mxGeometry x="60" width="70" height="40" as="geometry" />
        </mxCell>
        <mxCell id="3AUyrIFCvZihrLzA8j-U-35" value="1" style="shape=partialRectangle;html=1;whiteSpace=wrap;connectable=0;overflow=hidden;fillColor=#dae8fc;top=0;left=0;bottom=0;right=0;strokeColor=#6c8ebf;" vertex="1" parent="gSJrjUqgG9J_eSjiBrPd-51">
          <mxGeometry x="130" width="70" height="40" as="geometry" />
        </mxCell>
        <mxCell id="3AUyrIFCvZihrLzA8j-U-42" style="shape=partialRectangle;html=1;whiteSpace=wrap;connectable=0;overflow=hidden;fillColor=#dae8fc;top=0;left=0;bottom=0;right=0;strokeColor=#6c8ebf;" vertex="1" parent="gSJrjUqgG9J_eSjiBrPd-51">
          <mxGeometry x="200" width="70" height="40" as="geometry" />
        </mxCell>
        <mxCell id="3AUyrIFCvZihrLzA8j-U-49" style="shape=partialRectangle;html=1;whiteSpace=wrap;connectable=0;overflow=hidden;fillColor=#dae8fc;top=0;left=0;bottom=0;right=0;strokeColor=#6c8ebf;" vertex="1" parent="gSJrjUqgG9J_eSjiBrPd-51">
          <mxGeometry x="270" width="70" height="40" as="geometry" />
        </mxCell>
        <mxCell id="gSJrjUqgG9J_eSjiBrPd-48" value="" style="shape=partialRectangle;html=1;whiteSpace=wrap;collapsible=0;dropTarget=0;pointerEvents=0;fillColor=none;top=0;left=0;bottom=0;right=0;points=[[0,0.5],[1,0.5]];portConstraint=eastwest;" parent="gSJrjUqgG9J_eSjiBrPd-44" vertex="1">
          <mxGeometry y="80" width="340" height="40" as="geometry" />
        </mxCell>
        <mxCell id="gSJrjUqgG9J_eSjiBrPd-49" value="2" style="shape=partialRectangle;html=1;whiteSpace=wrap;connectable=0;overflow=hidden;fillColor=#dae8fc;top=0;left=0;bottom=0;right=0;strokeColor=#6c8ebf;" parent="gSJrjUqgG9J_eSjiBrPd-48" vertex="1">
          <mxGeometry width="60" height="40" as="geometry" />
        </mxCell>
        <mxCell id="gSJrjUqgG9J_eSjiBrPd-50" value="" style="shape=partialRectangle;html=1;whiteSpace=wrap;connectable=0;overflow=hidden;fillColor=#dae8fc;top=0;left=0;bottom=0;right=0;strokeColor=#6c8ebf;" parent="gSJrjUqgG9J_eSjiBrPd-48" vertex="1">
          <mxGeometry x="60" width="70" height="40" as="geometry" />
        </mxCell>
        <mxCell id="3AUyrIFCvZihrLzA8j-U-36" value="0" style="shape=partialRectangle;html=1;whiteSpace=wrap;connectable=0;overflow=hidden;fillColor=#dae8fc;top=0;left=0;bottom=0;right=0;strokeColor=#6c8ebf;" vertex="1" parent="gSJrjUqgG9J_eSjiBrPd-48">
          <mxGeometry x="130" width="70" height="40" as="geometry" />
        </mxCell>
        <mxCell id="3AUyrIFCvZihrLzA8j-U-43" style="shape=partialRectangle;html=1;whiteSpace=wrap;connectable=0;overflow=hidden;fillColor=#dae8fc;top=0;left=0;bottom=0;right=0;strokeColor=#6c8ebf;" vertex="1" parent="gSJrjUqgG9J_eSjiBrPd-48">
          <mxGeometry x="200" width="70" height="40" as="geometry" />
        </mxCell>
        <mxCell id="3AUyrIFCvZihrLzA8j-U-50" style="shape=partialRectangle;html=1;whiteSpace=wrap;connectable=0;overflow=hidden;fillColor=#dae8fc;top=0;left=0;bottom=0;right=0;strokeColor=#6c8ebf;" vertex="1" parent="gSJrjUqgG9J_eSjiBrPd-48">
          <mxGeometry x="270" width="70" height="40" as="geometry" />
        </mxCell>
        <mxCell id="gSJrjUqgG9J_eSjiBrPd-54" value="" style="shape=partialRectangle;html=1;whiteSpace=wrap;collapsible=0;dropTarget=0;pointerEvents=0;fillColor=none;top=0;left=0;bottom=0;right=0;points=[[0,0.5],[1,0.5]];portConstraint=eastwest;" parent="gSJrjUqgG9J_eSjiBrPd-44" vertex="1">
          <mxGeometry y="120" width="340" height="40" as="geometry" />
        </mxCell>
        <mxCell id="gSJrjUqgG9J_eSjiBrPd-55" value="3" style="shape=partialRectangle;html=1;whiteSpace=wrap;connectable=0;overflow=hidden;fillColor=#dae8fc;top=0;left=0;bottom=0;right=0;strokeColor=#6c8ebf;" parent="gSJrjUqgG9J_eSjiBrPd-54" vertex="1">
          <mxGeometry width="60" height="40" as="geometry" />
        </mxCell>
        <mxCell id="gSJrjUqgG9J_eSjiBrPd-56" value="" style="shape=partialRectangle;html=1;whiteSpace=wrap;connectable=0;overflow=hidden;fillColor=#dae8fc;top=0;left=0;bottom=0;right=0;strokeColor=#6c8ebf;" parent="gSJrjUqgG9J_eSjiBrPd-54" vertex="1">
          <mxGeometry x="60" width="70" height="40" as="geometry" />
        </mxCell>
        <mxCell id="3AUyrIFCvZihrLzA8j-U-37" value="0" style="shape=partialRectangle;html=1;whiteSpace=wrap;connectable=0;overflow=hidden;fillColor=#dae8fc;top=0;left=0;bottom=0;right=0;strokeColor=#6c8ebf;" vertex="1" parent="gSJrjUqgG9J_eSjiBrPd-54">
          <mxGeometry x="130" width="70" height="40" as="geometry" />
        </mxCell>
        <mxCell id="3AUyrIFCvZihrLzA8j-U-44" style="shape=partialRectangle;html=1;whiteSpace=wrap;connectable=0;overflow=hidden;fillColor=#dae8fc;top=0;left=0;bottom=0;right=0;strokeColor=#6c8ebf;" vertex="1" parent="gSJrjUqgG9J_eSjiBrPd-54">
          <mxGeometry x="200" width="70" height="40" as="geometry" />
        </mxCell>
        <mxCell id="3AUyrIFCvZihrLzA8j-U-51" style="shape=partialRectangle;html=1;whiteSpace=wrap;connectable=0;overflow=hidden;fillColor=#dae8fc;top=0;left=0;bottom=0;right=0;strokeColor=#6c8ebf;" vertex="1" parent="gSJrjUqgG9J_eSjiBrPd-54">
          <mxGeometry x="270" width="70" height="40" as="geometry" />
        </mxCell>
        <mxCell id="gSJrjUqgG9J_eSjiBrPd-57" value="" style="shape=partialRectangle;html=1;whiteSpace=wrap;collapsible=0;dropTarget=0;pointerEvents=0;fillColor=none;top=0;left=0;bottom=0;right=0;points=[[0,0.5],[1,0.5]];portConstraint=eastwest;" parent="gSJrjUqgG9J_eSjiBrPd-44" vertex="1">
          <mxGeometry y="160" width="340" height="40" as="geometry" />
        </mxCell>
        <mxCell id="gSJrjUqgG9J_eSjiBrPd-58" value="4" style="shape=partialRectangle;html=1;whiteSpace=wrap;connectable=0;overflow=hidden;fillColor=#dae8fc;top=0;left=0;bottom=0;right=0;strokeColor=#6c8ebf;" parent="gSJrjUqgG9J_eSjiBrPd-57" vertex="1">
          <mxGeometry width="60" height="40" as="geometry" />
        </mxCell>
        <mxCell id="gSJrjUqgG9J_eSjiBrPd-59" value="" style="shape=partialRectangle;html=1;whiteSpace=wrap;connectable=0;overflow=hidden;fillColor=#dae8fc;top=0;left=0;bottom=0;right=0;strokeColor=#6c8ebf;" parent="gSJrjUqgG9J_eSjiBrPd-57" vertex="1">
          <mxGeometry x="60" width="70" height="40" as="geometry" />
        </mxCell>
        <mxCell id="3AUyrIFCvZihrLzA8j-U-38" value="0" style="shape=partialRectangle;html=1;whiteSpace=wrap;connectable=0;overflow=hidden;fillColor=#dae8fc;top=0;left=0;bottom=0;right=0;strokeColor=#6c8ebf;" vertex="1" parent="gSJrjUqgG9J_eSjiBrPd-57">
          <mxGeometry x="130" width="70" height="40" as="geometry" />
        </mxCell>
        <mxCell id="3AUyrIFCvZihrLzA8j-U-45" style="shape=partialRectangle;html=1;whiteSpace=wrap;connectable=0;overflow=hidden;fillColor=#dae8fc;top=0;left=0;bottom=0;right=0;strokeColor=#6c8ebf;" vertex="1" parent="gSJrjUqgG9J_eSjiBrPd-57">
          <mxGeometry x="200" width="70" height="40" as="geometry" />
        </mxCell>
        <mxCell id="3AUyrIFCvZihrLzA8j-U-52" style="shape=partialRectangle;html=1;whiteSpace=wrap;connectable=0;overflow=hidden;fillColor=#dae8fc;top=0;left=0;bottom=0;right=0;strokeColor=#6c8ebf;" vertex="1" parent="gSJrjUqgG9J_eSjiBrPd-57">
          <mxGeometry x="270" width="70" height="40" as="geometry" />
        </mxCell>
        <mxCell id="gSJrjUqgG9J_eSjiBrPd-60" value="" style="shape=partialRectangle;html=1;whiteSpace=wrap;collapsible=0;dropTarget=0;pointerEvents=0;fillColor=none;top=0;left=0;bottom=0;right=0;points=[[0,0.5],[1,0.5]];portConstraint=eastwest;" parent="gSJrjUqgG9J_eSjiBrPd-44" vertex="1">
          <mxGeometry y="200" width="340" height="40" as="geometry" />
        </mxCell>
        <mxCell id="gSJrjUqgG9J_eSjiBrPd-61" value="5" style="shape=partialRectangle;html=1;whiteSpace=wrap;connectable=0;overflow=hidden;fillColor=#dae8fc;top=0;left=0;bottom=0;right=0;strokeColor=#6c8ebf;" parent="gSJrjUqgG9J_eSjiBrPd-60" vertex="1">
          <mxGeometry width="60" height="40" as="geometry" />
        </mxCell>
        <mxCell id="gSJrjUqgG9J_eSjiBrPd-62" value="8" style="shape=partialRectangle;html=1;whiteSpace=wrap;connectable=0;overflow=hidden;fillColor=#dae8fc;top=0;left=0;bottom=0;right=0;strokeColor=#6c8ebf;" parent="gSJrjUqgG9J_eSjiBrPd-60" vertex="1">
          <mxGeometry x="60" width="70" height="40" as="geometry" />
        </mxCell>
        <mxCell id="3AUyrIFCvZihrLzA8j-U-39" value="1" style="shape=partialRectangle;html=1;whiteSpace=wrap;connectable=0;overflow=hidden;fillColor=#dae8fc;top=0;left=0;bottom=0;right=0;strokeColor=#6c8ebf;" vertex="1" parent="gSJrjUqgG9J_eSjiBrPd-60">
          <mxGeometry x="130" width="70" height="40" as="geometry" />
        </mxCell>
        <mxCell id="3AUyrIFCvZihrLzA8j-U-46" style="shape=partialRectangle;html=1;whiteSpace=wrap;connectable=0;overflow=hidden;fillColor=#dae8fc;top=0;left=0;bottom=0;right=0;strokeColor=#6c8ebf;" vertex="1" parent="gSJrjUqgG9J_eSjiBrPd-60">
          <mxGeometry x="200" width="70" height="40" as="geometry" />
        </mxCell>
        <mxCell id="3AUyrIFCvZihrLzA8j-U-53" style="shape=partialRectangle;html=1;whiteSpace=wrap;connectable=0;overflow=hidden;fillColor=#dae8fc;top=0;left=0;bottom=0;right=0;strokeColor=#6c8ebf;" vertex="1" parent="gSJrjUqgG9J_eSjiBrPd-60">
          <mxGeometry x="270" width="70" height="40" as="geometry" />
        </mxCell>
        <mxCell id="gSJrjUqgG9J_eSjiBrPd-63" value="" style="shape=partialRectangle;html=1;whiteSpace=wrap;collapsible=0;dropTarget=0;pointerEvents=0;fillColor=none;top=0;left=0;bottom=0;right=0;points=[[0,0.5],[1,0.5]];portConstraint=eastwest;" parent="gSJrjUqgG9J_eSjiBrPd-44" vertex="1">
          <mxGeometry y="240" width="340" height="40" as="geometry" />
        </mxCell>
        <mxCell id="gSJrjUqgG9J_eSjiBrPd-64" value="6" style="shape=partialRectangle;html=1;whiteSpace=wrap;connectable=0;overflow=hidden;fillColor=#dae8fc;top=0;left=0;bottom=0;right=0;strokeColor=#6c8ebf;" parent="gSJrjUqgG9J_eSjiBrPd-63" vertex="1">
          <mxGeometry width="60" height="40" as="geometry" />
        </mxCell>
        <mxCell id="gSJrjUqgG9J_eSjiBrPd-65" value="1" style="shape=partialRectangle;html=1;whiteSpace=wrap;connectable=0;overflow=hidden;fillColor=#dae8fc;top=0;left=0;bottom=0;right=0;strokeColor=#6c8ebf;" parent="gSJrjUqgG9J_eSjiBrPd-63" vertex="1">
          <mxGeometry x="60" width="70" height="40" as="geometry" />
        </mxCell>
        <mxCell id="3AUyrIFCvZihrLzA8j-U-40" value="1" style="shape=partialRectangle;html=1;whiteSpace=wrap;connectable=0;overflow=hidden;fillColor=#dae8fc;top=0;left=0;bottom=0;right=0;strokeColor=#6c8ebf;" vertex="1" parent="gSJrjUqgG9J_eSjiBrPd-63">
          <mxGeometry x="130" width="70" height="40" as="geometry" />
        </mxCell>
        <mxCell id="3AUyrIFCvZihrLzA8j-U-47" style="shape=partialRectangle;html=1;whiteSpace=wrap;connectable=0;overflow=hidden;fillColor=#dae8fc;top=0;left=0;bottom=0;right=0;strokeColor=#6c8ebf;" vertex="1" parent="gSJrjUqgG9J_eSjiBrPd-63">
          <mxGeometry x="200" width="70" height="40" as="geometry" />
        </mxCell>
        <mxCell id="3AUyrIFCvZihrLzA8j-U-54" style="shape=partialRectangle;html=1;whiteSpace=wrap;connectable=0;overflow=hidden;fillColor=#dae8fc;top=0;left=0;bottom=0;right=0;strokeColor=#6c8ebf;" vertex="1" parent="gSJrjUqgG9J_eSjiBrPd-63">
          <mxGeometry x="270" width="70" height="40" as="geometry" />
        </mxCell>
      </root>
    </mxGraphModel>
  </diagram>
</mxfile>
